{"title":"Haywire 2012 CAM READNFO XViD DTRG","uid":6985271,"size":1414308568,"categoryP":"video","categoryS":"movies","magnet":"?xt=urn:btih:073b2d426ba5fdd6fa1ab339772df29a8ce46904&amp;dn=Haywire+2012+CAM+READNFO+XViD+DTRG&amp;tr=udp%3A%2F%2Ftracker.openbittorrent.com%3A80&amp;tr=udp%3A%2F%2Fopen.demonii.com%3A1337&amp;tr=udp%3A%2F%2Ftracker.coppersurfer.tk%3A6969&amp;tr=udp%3A%2F%2Fexodus.desync.com%3A6969","seeders":0,"leechers":0,"uploader":".BONE.","files":4,"time":1327542997,"description":"Beautiful freelance covert operative Mallory Kane is hired out by her handler to various global entities to perform jobs which governments can't authorize and heads of state would rather not know about. After a mission to rescue a hostage in Barcelona, Mallory is quickly dispatched on another mission to Dublin. When the operation goes awry and Mallory finds she has been double crossed, she needs to use all of her skills, tricks and abilities to escape an international manhunt, make it back to the United States, protect her family, and exact revenge on those that have betrayed her.\n\nFormat : AVI\nFormat/Info : Audio Video Interleave\nFile size : 1.30 GiB\nDuration : 1h 26mn\nOverall bit rate : 2 153 Kbps\nWriting library : VirtualDub build 32842/release\n\nVideo\nID : 0\nFormat : MPEG-4 Visual\nFormat profile : Advanced Simple@L5\nFormat settings, BVOP : 1\nFormat settings, QPel : No\nFormat settings, GMC : No warppoints\nFormat settings, Matrix : Default (H.263)\nMuxing mode : Packed bitstream\nCodec ID : XVID\nCodec ID/Hint : XviD\nDuration : 1h 26mn\nBit rate : 2 015 Kbps\nWidth : 720 pixels\nHeight : 288 pixels\nDisplay aspect ratio : 2.500\nFrame rate : 25.000 fps\nColor space : YUV\nChroma subsampling : 4:2:0\nBit depth : 8 bits\nScan type : Progressive\nCompression mode : Lossy\nBits/(Pixel*Frame) : 0.389\nStream size : 1.22 GiB (94%)\nWriting library : XviD 64\n\nAudio\nID : 1\nFormat : MPEG Audio\nFormat version : Version 1\nFormat profile : Layer 3\nMode : Joint stereo\nMode extension : MS Stereo\nCodec ID : 55\nCodec ID/Hint : MP3\nDuration : 1h 26mn\nBit rate mode : Constant\nBit rate : 128 Kbps\nChannel(s) : 2 channels\nSampling rate : 44.1 KHz\nCompression mode : Lossy\nStream size : 79.4 MiB (6%)\nAlignment : Split accross interleaves\nInterleave, duration : 40 ms (1.00 video frame)\nInterleave, preload duration : 500 ms\n\nSource Used\n\nNokaut.2011.D.CAMRip(LUM1X) / INSPiRAL..................Thanks\n\nJust a straightforward reencode of the russian release\n\nVids not great imo check out that sample its really needed ......One for cam lovers this one\n\nWork done blah blah\n\nAR changes time to time with camera movement what more could you ask for !\n &lt;a href=&quot;\nhttp://www.aedes.us/d/9moBY.png&quot; rel=&quot;nofollow&quot; target=&quot;_NEW&quot;&gt;\nhttp://www.aedes.us/d/9moBY.png&lt;/a&gt; &lt;a href=&quot;\nhttp://www.aedes.us/d/bV4XC.png&quot; rel=&quot;nofollow&quot; target=&quot;_NEW&quot;&gt;\nhttp://www.aedes.us/d/bV4XC.png&lt;/a&gt; &lt;a href=&quot;\nhttp://www.aedes.us/d/Vec4h.png&quot; rel=&quot;nofollow&quot; target=&quot;_NEW&quot;&gt;\nhttp://www.aedes.us/d/Vec4h.png&lt;/a&gt;","torrent":{"xt":"urn:btih:073b2d426ba5fdd6fa1ab339772df29a8ce46904","amp;dn":"Haywire+2012+CAM+READNFO+XViD+DTRG","amp;tr":["udp%3A%2F%2Ftracker.openbittorrent.com%3A80","udp%3A%2F%2Fopen.demonii.com%3A1337","udp%3A%2F%2Ftracker.coppersurfer.tk%3A6969","udp%3A%2F%2Fexodus.desync.com%3A6969"],"infoHash":"073b2d426ba5fdd6fa1ab339772df29a8ce46904","infoHashBuffer":{"type":"Buffer","data":[7,59,45,66,107,165,253,214,250,26,179,57,119,45,242,154,140,228,105,4]},"announce":[],"urlList":[]}}